:SAMPLES-PER-SECOND 30
:FULLY-SPECIFIED
:DEGREES
235
root  11.4434888 38.81333419 -5.412800106 11.8991003 13.1335001 -4.232179642
lfemur  -56.65279007 -13.16010189 2.018448114
ltibia  -1.491570742e-006 -8.364404493e-007 36.48078156
lfoot  5.521815751e-007 12.8161087 -5.821009636
ltoes  -4.250644065 -19.5611806 -102.515957
rfemur  2.847187042 5.533230782 29.46899796
rtibia  -8.727266732e-007 2.533748784e-007 35.02928543
rfoot  -2.316020982e-006 -17.23919296 -18.82729721
rtoes  5.373923086 19.29304026 -105.8922705
lowerback  11.02429962 7.117119789 -1.561159968
upperback  2.215300083 8.981840134 -7.68380022
thorax  -2.769769907 4.513529778 -8.391249657
rclavicle  0 -9.442270133e-015 7.951389973e-016
rhumerus  35.80950546 -10.09570217 -11.53699875
rradius  -7.782816926e-012 0.001642658608 38.82600021
rwrist  0.002739921212 0.003270594636 -0.9123839736
rthumb  -92.93752616 -24.25625642 -97.11982154
rhand  -7.920061211e-032 -33.2840004 9.303460121
rfingers  -90 -7.125020027 -90
lclavicle  0 -9.442270133e-015 7.951389973e-016
lhumerus  10.20890045 -27.24329948 70.44419861
lradius  1.032090125e-011 0.005718162749 137.2460022
lwrist  1.816137865e-011 1.409039812e-011 9.04115963
lthumb  89.89689403 5.08795885 91.16245106
lhand  -1.496451383e-031 -27.76390076 20.11240005
lfingers  90 7.125020027 -90
lowerneck  1.200729966 -4.744349957 -13.20170021
upperneck  6.304669857 -7.389989853 19.42840004
head  2.848289967 -3.571860075 8.040949821
236
root  11.35402214 38.79866713 -5.270488994 12.19499969 14.73010063 -4.301989555
lfemur  -56.82759857 -13.17079926 1.567511082
ltibia  -1.491570742e-006 -8.364404493e-007 36.69260025
lfoot  5.521815751e-007 11.12500095 -5.67525053
ltoes  -4.250644065 -19.5611806 -102.515957
rfemur  2.785825968 4.588610172 29.48470116
rtibia  -8.727266732e-007 2.533748784e-007 34.28250885
rfoot  -2.316020982e-006 -17.56770325 -18.21290016
rtoes  5.373923086 19.29304026 -105.8922705
lowerback  11.04759979 7.288259983 -1.452470064
upperback  2.153739929 9.228360176 -7.321670055
thorax  -2.861560106 4.630000114 -8.097880363
rclavicle  0 -9.442270133e-015 7.951389973e-016
rhumerus  40.07920074 -12.74409866 -13.37150002
rradius  -7.782816926e-012 0.001642658608 26.56959915
rwrist  0.002739921212 0.003270594636 6.04211998
rthumb  -92.93752616 -24.25625642 -97.11982154
rhand  -7.920061211e-032 -33.2840004 9.303460121
rfingers  -90 -7.125020027 -90
lclavicle  0 -9.442270133e-015 7.951389973e-016
lhumerus  10.12220001 -27.58390045 70.23500061
lradius  1.032090125e-011 0.005718162749 137.5420074
lwrist  1.816137865e-011 1.409039812e-011 8.586529732
lthumb  89.89689403 5.08795885 91.16245106
lhand  -1.496451383e-031 -27.76390076 20.11240005
lfingers  90 7.125020027 -90
lowerneck  1.496629953 -5.005119801 -13.09630013
upperneck  5.656600475 -7.739349842 20.29190063
head  2.700739861 -3.755219698 8.300880432
237
root  11.2464672 38.77689031 -5.119444629 12.57719994 16.3316021 -4.320310116
lfemur  -57.11050415 -13.01599884 0.9569296837
ltibia  -1.491570742e-006 -8.364404493e-007 36.76870346
lfoot  5.521815751e-007 10.04719925 -5.440710068
ltoes  -4.250644065 -19.5611806 -102.515957
rfemur  2.577932835 3.747899532 29.5163002
rtibia  -8.727266732e-007 2.533748784e-007 33.76329803
rfoot  -2.316020982e-006 -18.05010033 -18.0734005
rtoes  5.373923086 19.29304026 -105.8922705
lowerback  11.16279984 7.598780155 -1.40249002
upperback  2.173330069 9.647689819 -7.151869774
thorax  -2.873529911 4.838759899 -8.00605011
rclavicle  0 -9.442270133e-015 7.951389973e-016
rhumerus  47.53099823 -23.44469833 -25.00250053
rradius  -7.782816926e-012 0.001642658608 14.37659931
rwrist  0.002739921212 0.003270594636 27.7397995
rthumb  -92.93752616 -24.25625642 -97.11982154
rhand  -7.920061211e-032 -33.2840004 9.303460121
rfingers  -90 -7.125020027 -90
lclavicle  0 -9.442270133e-015 7.951389973e-016
lhumerus  10.44830036 -28.47909927 69.58450317
lradius  1.032090038e-011 0.005718162749 137.9459991
lwrist  1.816137865e-011 1.409039812e-011 8.354229927
lthumb  89.89689403 5.08795885 91.16245106
lhand  -1.496451383e-031 -27.76390076 20.11240005
lfingers  90 7.125020027 -90
lowerneck  1.194779992 -5.523210049 -12.50800037
upperneck  4.800729752 -8.353770256 21.14749908
head  2.631119728 -4.039949894 8.439419746
238
root  11.12948891 38.76000051 -4.961333312 12.95140076 17.96910286 -4.35667944
lfemur  -57.42629242 -12.69540215 0.1717477292
ltibia  -1.491570742e-006 -8.364404493e-007 36.73628235
lfoot  5.521815751e-007 9.187968254 -5.755759716
ltoes  -4.250644065 -19.5611806 -102.515957
rfemur  2.316476822 3.064301252 29.64389801
rtibia  -8.727266732e-007 2.533748784e-007 33.35087967
rfoot  -2.316020982e-006 -18.62909126 -18.45349884
rtoes  5.373923086 19.29304026 -105.8922705
lowerback  11.34549999 7.796919823 -1.425780058
upperback  2.399549961 9.918499947 -6.868319988
thorax  -2.757380009 4.977079868 -7.727950096
rclavicle  0 -9.442270133e-015 7.951389973e-016
rhumerus  66.08600616 -40.56200027 -56.38000488
rradius  -7.782816926e-012 0.001642658608 10.4538002
rwrist  0.002739921212 0.003270594636 65.48459625
rthumb  -92.93752616 -24.25625642 -97.11982154
rhand  -7.920061211e-032 -33.2840004 9.303460121
rfingers  -90 -7.125020027 -90
lclavicle  0 -9.442270133e-015 7.951389973e-016
lhumerus  10.69499969 -28.93959999 68.76210022
lradius  1.032090038e-011 0.005718162749 138.6589966
lwrist  1.816137865e-011 1.409039812e-011 8.010379791
lthumb  89.89689403 5.08795885 91.16245106
lhand  -1.496451383e-031 -27.76390076 20.11240005
lfingers  90 7.125020027 -90
lowerneck  0.1538279951 -6.089819908 -12.19439983
upperneck  3.764569759 -8.943559647 21.78660011
head  2.643449783 -4.293670177 8.526599884
239
root  11.00875524 38.73022185 -4.78628902 13.34700012 19.71730042 -4.424479961
lfemur  -57.89189911 -12.30829906 -0.7032336593
ltibia  -1.491570742e-006 -8.364404493e-007 36.60279846
lfoot  5.521815751e-007 8.688710213 -6.607340336
ltoes  -4.250644065 -19.5611806 -102.515957
rfemur  2.015030861 2.51631999 29.87310219
rtibia  -8.727266732e-007 2.533748784e-007 32.97359848
rfoot  -2.316020982e-006 -19.29030037 -19.53510094
rtoes  5.373923086 19.29304026 -105.8922705
lowerback  11.96510029 7.816829681 -0.8619630933
upperback  2.368069887 9.976429939 -7.117249966
thorax  -2.976039886 5.004859924 -8.412090302
rclavicle  0 -9.442270133e-015 7.951389973e-016
rhumerus  78.1292038 -45.76729965 -76.22419739
rradius  -7.782816926e-012 0.001642658608 13.80870056
rwrist  0.002739921212 0.003270594636 82.10590363
rthumb  -92.93752616 -24.25625642 -97.11982154
rhand  -7.920061211e-032 -33.2840004 9.303460121
rfingers  -90 -7.125020027 -90
lclavicle  0 -9.442270133e-015 7.951389973e-016
lhumerus  10.84790039 -29.5991993 67.05090332
lradius  1.032090038e-011 0.005718162749 139.3300018
lwrist  1.816137865e-011 1.409039812e-011 7.262020111
lthumb  89.89689403 5.08795885 91.16245106
lhand  -1.496451383e-031 -27.76390076 20.11240005
lfingers  90 7.125020027 -90
lowerneck  -0.694633007 -6.626679897 -11.33780003
upperneck  2.487089872 -9.478219986 22.62770081
head  2.532630205 -4.532390118 8.592909813
